# xmcd
#
# Track frame offsets:
#	150
#	16360
#	31285
#	46505
#	60520
#	78745
#	92217
#	113565
#	128670
#	142622
#	156777
#	172627
#	189192
#	210907
#
# Disc length: 3031 seconds
#
# Revision: 1
# Processed by: cddbd v1.5.2PL0 Copyright (c) Steve Scherf et al.
# Submitted via: audiograbber 1.83.01
#
DISCID=980bd50e
DTITLE=Trace Adkins - Honky Tonk Badonkadonk
DYEAR=2006
DGENRE=Country
TTITLE0=Honky Tonk Badonkadonk (Eurofunk Version)
TTITLE1=Hot Momma
TTITLE2=Songs About Me
TTITLE3=I Left Something Turned On At Home
TTITLE4=(This Ain't) No Thinkin' Thing
TTITLE5=Every Light In the House
TTITLE6=I'm Tryin'
TTITLE7=Chrome
TTITLE8=More
TTITLE9=Rough and Ready
TTITLE10=Can I Want Your Love
TTITLE11=Honky Tonk Badonkadonk (Country Club Mix)
TTITLE12=Honky Tonk Badonkadonk ('70s Groove Mix)
TTITLE13=Honky Tonk Badonkadonk (Radio Version)
EXTD=
EXTT0=
EXTT1=
EXTT2=
EXTT3=
EXTT4=
EXTT5=
EXTT6=
EXTT7=
EXTT8=
EXTT9=
EXTT10=
EXTT11=
EXTT12=
EXTT13=
PLAYORDER=
